<svg xmlns="http://www.w3.org/2000/svg" width="433.146" height="431.161" viewBox="0 0 433.146 431.161">
  <defs>
    <style>
      .cls-1 {
        fill: #fffda1;
      }

      .cls-2 {
        fill: #6809b8;
        font-size: 75px;
        font-family: SegoeUI, Segoe UI;
      }

      .cls-3 {
        fill: #e8b776;
      }

      .cls-4, .cls-5 {
        fill: #87d4ff;
      }

      .cls-5 {
        stroke: #707070;
      }

      .cls-6, .cls-7 {
        stroke: none;
      }

      .cls-7 {
        fill: #707070;
      }
    </style>
  </defs>
  <g id="Group_1" data-name="Group 1" transform="translate(-763.993 -149)">
    <g id="Path_49" data-name="Path 49" class="cls-1" transform="translate(765 149)">
      <path class="cls-6" d="M 215.5805816650391 430.6611633300781 C 200.9873199462891 430.6611633300781 186.4033660888672 429.1910095214844 172.2338409423828 426.2914733886719 C 158.4246368408203 423.4657287597656 144.8414764404297 419.249267578125 131.8616943359375 413.75927734375 C 119.1173706054688 408.368896484375 106.8254776000977 401.6970520019531 95.32731628417969 393.9290466308594 C 83.93831634521484 386.2348327636719 73.2286376953125 377.3984680175781 63.49563598632813 367.66552734375 C 53.76268768310547 357.9325866699219 44.92637252807617 347.2228393554688 37.23210906982422 335.8338317871094 C 29.46410751342773 324.3357543945313 22.79226493835449 312.0437927246094 17.40189743041992 299.2995300292969 C 11.91189765930176 286.3197021484375 7.695476531982422 272.7365417480469 4.869687080383301 258.9273681640625 C 1.970160603523254 244.7577972412109 0.5000027418136597 230.1738433837891 0.5000027418136597 215.5805816650391 C 0.5000027418136597 200.9873199462891 1.970160603523254 186.4033660888672 4.869687080383301 172.2338409423828 C 7.695476531982422 158.4246368408203 11.91189765930176 144.8414764404297 17.40189743041992 131.8616943359375 C 22.79226493835449 119.1173706054688 29.46410751342773 106.8254776000977 37.23210906982422 95.32731628417969 C 44.92637252807617 83.93831634521484 53.76268768310547 73.2286376953125 63.49563598632813 63.49563598632813 C 73.2286376953125 53.76268768310547 83.93831634521484 44.92637252807617 95.32731628417969 37.23210906982422 C 106.8254776000977 29.46410751342773 119.1173706054688 22.79226493835449 131.8616943359375 17.40189743041992 C 144.8414764404297 11.91189765930176 158.4246368408203 7.695476531982422 172.2338409423828 4.869687080383301 C 186.4033660888672 1.970160603523254 200.9873199462891 0.5000027418136597 215.5805816650391 0.5000027418136597 C 230.1738433837891 0.5000027418136597 244.7577972412109 1.970160603523254 258.9273681640625 4.869687080383301 C 272.7365417480469 7.695476531982422 286.3197021484375 11.91189765930176 299.2995300292969 17.40189743041992 C 312.0437927246094 22.79226493835449 324.3357543945313 29.46410751342773 335.8338317871094 37.23210906982422 C 347.2228393554688 44.92637252807617 357.9325866699219 53.76268768310547 367.66552734375 63.49563598632813 C 377.3984680175781 73.2286376953125 386.2348327636719 83.93831634521484 393.9290466308594 95.32731628417969 C 401.6970520019531 106.8254776000977 408.368896484375 119.1173706054688 413.75927734375 131.8616943359375 C 419.249267578125 144.8414764404297 423.4657287597656 158.4246368408203 426.2914733886719 172.2338409423828 C 429.1910095214844 186.4033660888672 430.6611633300781 200.9873199462891 430.6611633300781 215.5805816650391 C 430.6611633300781 230.1738433837891 429.1910095214844 244.7577972412109 426.2914733886719 258.9273681640625 C 423.4657287597656 272.7365417480469 419.249267578125 286.3197021484375 413.75927734375 299.2995300292969 C 408.368896484375 312.0437927246094 401.6970520019531 324.3357543945313 393.9290466308594 335.8338317871094 C 386.2348327636719 347.2228393554688 377.3984680175781 357.9325866699219 367.66552734375 367.66552734375 C 357.9325866699219 377.3984680175781 347.2228393554688 386.2348327636719 335.8338317871094 393.9290466308594 C 324.3357543945313 401.6970520019531 312.0437927246094 408.368896484375 299.2995300292969 413.75927734375 C 286.3197021484375 419.249267578125 272.7365417480469 423.4657287597656 258.9273681640625 426.2914733886719 C 244.7577972412109 429.1910095214844 230.1738433837891 430.6611633300781 215.5805816650391 430.6611633300781 Z"/>
      <path class="cls-7" d="M 215.5805816650391 0.999969482421875 C 201.0209197998047 0.999969482421875 186.4706878662109 2.46673583984375 172.3340148925781 5.359527587890625 C 158.5571899414063 8.17864990234375 145.005859375 12.38525390625 132.0564270019531 17.86236572265625 C 119.3418579101563 23.24020385742188 107.0785827636719 29.896484375 95.607177734375 37.6463623046875 C 84.24456787109375 45.32281494140625 73.55963134765625 54.13870239257813 63.84918212890625 63.84918212890625 C 54.13870239257813 73.55963134765625 45.32281494140625 84.24456787109375 37.6463623046875 95.607177734375 C 29.896484375 107.0785827636719 23.24020385742188 119.3418579101563 17.86236572265625 132.0564270019531 C 12.38525390625 145.005859375 8.17864990234375 158.5571899414063 5.359527587890625 172.3340148925781 C 2.46673583984375 186.4706878662109 0.999969482421875 201.0209197998047 0.999969482421875 215.5805816650391 C 0.999969482421875 230.1402435302734 2.46673583984375 244.6904754638672 5.359527587890625 258.8271484375 C 8.17864990234375 272.6039733886719 12.38525390625 286.1553039550781 17.86236572265625 299.104736328125 C 23.24020385742188 311.8193054199219 29.896484375 324.0825805664063 37.6463623046875 335.5539245605469 C 45.32281494140625 346.9165649414063 54.13870239257813 357.6015319824219 63.84918212890625 367.3119812011719 C 73.55963134765625 377.0223999023438 84.24456787109375 385.8383178710938 95.607177734375 393.5147399902344 C 107.0785827636719 401.2646484375 119.3418579101563 407.9209594726563 132.0564270019531 413.2987365722656 C 145.005859375 418.7759094238281 158.5571899414063 422.9824829101563 172.3340148925781 425.8015747070313 C 186.4706878662109 428.6943664550781 201.0209197998047 430.1611328125 215.5805816650391 430.1611328125 C 230.1402435302734 430.1611328125 244.6904754638672 428.6943664550781 258.8271484375 425.8015747070313 C 272.6039733886719 422.9824829101563 286.1553039550781 418.7759094238281 299.104736328125 413.2987365722656 C 311.8193054199219 407.9209594726563 324.0825805664063 401.2646484375 335.5539245605469 393.5147399902344 C 346.9165649414063 385.8383178710938 357.6015319824219 377.0223999023438 367.3119812011719 367.3119812011719 C 377.0223999023438 357.6015319824219 385.8383178710938 346.9165649414063 393.5147399902344 335.5539245605469 C 401.2646484375 324.0825805664063 407.9209594726563 311.8193054199219 413.2987365722656 299.104736328125 C 418.7759094238281 286.1553039550781 422.9824829101563 272.6039733886719 425.8015747070313 258.8271484375 C 428.6943664550781 244.6904754638672 430.1611328125 230.1402435302734 430.1611328125 215.5805816650391 C 430.1611328125 201.0209197998047 428.6943664550781 186.4706878662109 425.8015747070313 172.3340148925781 C 422.9824829101563 158.5571899414063 418.7759094238281 145.005859375 413.2987365722656 132.0564270019531 C 407.9209594726563 119.3418579101563 401.2646484375 107.0785827636719 393.5147399902344 95.607177734375 C 385.8383178710938 84.24456787109375 377.0223999023438 73.55963134765625 367.3119812011719 63.84918212890625 C 357.6015319824219 54.13870239257813 346.9165649414063 45.32281494140625 335.5539245605469 37.6463623046875 C 324.0825805664063 29.896484375 311.8193054199219 23.24020385742188 299.104736328125 17.86236572265625 C 286.1553039550781 12.38525390625 272.6039733886719 8.17864990234375 258.8271484375 5.359527587890625 C 244.6904754638672 2.46673583984375 230.1402435302734 0.999969482421875 215.5805816650391 0.999969482421875 M 215.5805816650391 -3.0517578125e-05 C 334.6424560546875 -3.0517578125e-05 431.1611328125 96.51870727539063 431.1611328125 215.5805816650391 C 431.1611328125 334.6424560546875 334.6424560546875 431.1611328125 215.5805816650391 431.1611328125 C 96.51870727539063 431.1611328125 -3.0517578125e-05 334.6424560546875 -3.0517578125e-05 215.5805816650391 C -3.0517578125e-05 96.51870727539063 96.51870727539063 -3.0517578125e-05 215.5805816650391 -3.0517578125e-05 Z"/>
    </g>
    <text id="Tourismus" class="cls-2" transform="translate(805 423.812)"><tspan x="8.356" y="81">Tourismus</tspan></text>
    <g id="Path_48" data-name="Path 48" class="cls-3" transform="translate(875.229 183.142)">
      <path class="cls-6" d="M 208.8612670898438 180.9388427734375 L 0.8664616942405701 180.9388427734375 L 104.8638610839844 0.9992005825042725 L 208.8612670898438 180.9388427734375 Z"/>
      <path class="cls-7" d="M 104.8638610839844 1.9984130859375 L 1.732940673828125 180.4388427734375 L 207.9947814941406 180.4388427734375 L 104.8638610839844 1.9984130859375 M 104.8638610839844 1.52587890625e-05 L 209.7277221679688 181.4388427734375 L 0 181.4388427734375 L 104.8638610839844 1.52587890625e-05 Z"/>
    </g>
    <g id="Path_43" data-name="Path 43" class="cls-4" transform="translate(924.84 183.37)">
      <path class="cls-6" d="M 108.3736343383789 91.19490814208984 L 0.8798781633377075 91.19490814208984 L 54.62675476074219 0.9769392609596252 L 108.3736343383789 91.19490814208984 Z"/>
      <path class="cls-7" d="M 54.62675476074219 1.953857421875 L 1.759742736816406 90.69490814208984 L 107.493766784668 90.69490814208984 L 54.62675476074219 1.953857421875 M 54.62675476074219 0 L 109.2535095214844 91.69490814208984 L 0 91.69490814208984 L 54.62675476074219 0 Z"/>
    </g>
    <path id="Path_45" data-name="Path 45" class="cls-5" d="M851.675,1709.147h380.966l24.454-33.914H825.934Z" transform="translate(-60.934 -1296.768)"/>
  </g>
</svg>
