<svg xmlns="http://www.w3.org/2000/svg" width="88.197" height="86.212" viewBox="0 0 88.197 86.212">
  <defs>
    <style>
      .cls-1 {
        fill: #fffda1;
      }

      .cls-2 {
        fill: #6809b8;
        font-size: 15px;
        font-family: SegoeUI, Segoe UI;
      }

      .cls-3 {
        fill: #e8b776;
      }

      .cls-4, .cls-5 {
        fill: #87d4ff;
      }

      .cls-5 {
        stroke: #707070;
      }

      .cls-6, .cls-7 {
        stroke: none;
      }

      .cls-7 {
        fill: #707070;
      }
    </style>
  </defs>
  <g id="Group_2" data-name="Group 2" transform="translate(-763.993 -149)">
    <g id="Path_49" data-name="Path 49" class="cls-1" transform="translate(765 149)">
      <path class="cls-6" d="M 43.10619735717773 85.71239471435547 C 37.35417556762695 85.71239471435547 31.77448654174805 84.58596038818359 26.52209663391113 82.36439514160156 C 21.44864273071289 80.218505859375 16.89210891723633 77.14637756347656 12.97906398773193 73.23332977294922 C 9.066030502319336 69.32028961181641 5.993886470794678 64.76375579833984 3.847997426986694 59.6902961730957 C 1.626430749893188 54.43791961669922 0.4999973475933075 48.85821914672852 0.4999973475933075 43.10619735717773 C 0.4999973475933075 37.35417556762695 1.626430749893188 31.77448654174805 3.847997426986694 26.52209663391113 C 5.993886470794678 21.44864273071289 9.066030502319336 16.89210891723633 12.97906398773193 12.97906398773193 C 16.89210891723633 9.066030502319336 21.44864273071289 5.993886470794678 26.52209663391113 3.847997426986694 C 31.77448654174805 1.626430749893188 37.35417556762695 0.4999973475933075 43.10619735717773 0.4999973475933075 C 48.85821914672852 0.4999973475933075 54.43791961669922 1.626430749893188 59.6902961730957 3.847997426986694 C 64.76375579833984 5.993886470794678 69.32028961181641 9.066030502319336 73.23332977294922 12.97906398773193 C 77.14637756347656 16.89210891723633 80.218505859375 21.44864273071289 82.36439514160156 26.52209663391113 C 84.58596038818359 31.77448654174805 85.71239471435547 37.35417556762695 85.71239471435547 43.10619735717773 C 85.71239471435547 48.85821914672852 84.58596038818359 54.43791961669922 82.36439514160156 59.6902961730957 C 80.218505859375 64.76375579833984 77.14637756347656 69.32028961181641 73.23332977294922 73.23332977294922 C 69.32028961181641 77.14637756347656 64.76375579833984 80.218505859375 59.6902961730957 82.36439514160156 C 54.43791961669922 84.58596038818359 48.85821914672852 85.71239471435547 43.10619735717773 85.71239471435547 Z"/>
      <path class="cls-7" d="M 43.10619735717773 1 C 37.42145538330078 1 31.90729141235352 2.113136291503906 26.71686935424805 4.308502197265625 C 21.70301818847656 6.429183959960938 17.19990539550781 9.465339660644531 13.33261871337891 13.33261871337891 C 9.465339660644531 17.19990539550781 6.429183959960938 21.70301818847656 4.308502197265625 26.71686935424805 C 2.113136291503906 31.90729141235352 1 37.42145538330078 1 43.10619735717773 C 1 48.79093933105469 2.113136291503906 54.30510330200195 4.308502197265625 59.49552917480469 C 6.429183959960938 64.50937652587891 9.465339660644531 69.01248931884766 13.33261871337891 72.87977600097656 C 17.19990539550781 76.74705505371094 21.70301818847656 79.78321075439453 26.71686935424805 81.90389251708984 C 31.90729141235352 84.09925842285156 37.42145538330078 85.21239471435547 43.10619735717773 85.21239471435547 C 48.79093933105469 85.21239471435547 54.30510330200195 84.09925842285156 59.49552917480469 81.90389251708984 C 64.50937652587891 79.78321075439453 69.01248931884766 76.74705505371094 72.87977600097656 72.87977600097656 C 76.74705505371094 69.01248931884766 79.78321075439453 64.50937652587891 81.90389251708984 59.49552917480469 C 84.09925842285156 54.30510330200195 85.21239471435547 48.79093933105469 85.21239471435547 43.10619735717773 C 85.21239471435547 37.42145538330078 84.09925842285156 31.90729141235352 81.90389251708984 26.71686935424805 C 79.78321075439453 21.70301818847656 76.74705505371094 17.19990539550781 72.87977600097656 13.33261871337891 C 69.01248931884766 9.465339660644531 64.50937652587891 6.429183959960938 59.49552917480469 4.308502197265625 C 54.30510330200195 2.113136291503906 48.79093933105469 1 43.10619735717773 1 M 43.10619735717773 0 C 66.91309356689453 0 86.21239471435547 19.29930114746094 86.21239471435547 43.10619735717773 C 86.21239471435547 66.91309356689453 66.91309356689453 86.21239471435547 43.10619735717773 86.21239471435547 C 19.29930114746094 86.21239471435547 0 66.91309356689453 0 43.10619735717773 C 0 19.29930114746094 19.29930114746094 0 43.10619735717773 0 Z"/>
    </g>
    <text id="Tourismus" class="cls-2" transform="translate(773 203.863)"><tspan x="1.671" y="16">Tourismus</tspan></text>
    <g id="Path_48" data-name="Path 48" class="cls-3" transform="translate(787.041 155.827)">
      <path class="cls-6" d="M 41.06941223144531 35.77942276000977 L 0.8664804697036743 35.77942276000977 L 20.96794700622559 0.9992188811302185 L 41.06941223144531 35.77942276000977 Z"/>
      <path class="cls-7" d="M 20.96794700622559 1.998424530029297 L 1.732959747314453 35.27942276000977 L 40.20293426513672 35.27942276000977 L 20.96794700622559 1.998424530029297 M 20.96794700622559 0 L 41.93589782714844 36.27942276000977 L -3.814697265625e-06 36.27942276000977 L 20.96794700622559 0 Z"/>
    </g>
    <g id="Path_43" data-name="Path 43" class="cls-4" transform="translate(796.961 155.872)">
      <path class="cls-6" d="M 20.9658031463623 17.83476066589355 L 0.8798708319664001 17.83476066589355 L 10.92283725738525 0.9769313335418701 L 20.9658031463623 17.83476066589355 Z"/>
      <path class="cls-7" d="M 10.92283725738525 1.95387077331543 L 1.759750366210938 17.33476066589355 L 20.08592414855957 17.33476066589355 L 10.92283725738525 1.95387077331543 M 10.92283725738525 1.9073486328125e-06 L 21.84567642211914 18.33476066589355 L -1.9073486328125e-06 18.33476066589355 L 10.92283725738525 1.9073486328125e-06 Z"/>
    </g>
    <path id="Path_45" data-name="Path 45" class="cls-5" d="M831.081,1682.015h76.176l4.89-6.781H825.934Z" transform="translate(-60.934 -1480.351)"/>
  </g>
</svg>
